<svg width="24" height="24" viewBox="0 0 24 24" fill="none" xmlns="http://www.w3.org/2000/svg">
<path d="M8.00033 13.3333L4.99806 18.2681C4.89457 18.4382 4.7274 18.5662 4.52899 18.6273C4.33059 18.6883 4.11509 18.678 3.92432 18.5984L2.66699 18.0738" stroke="white" stroke-width="1.5" stroke-linecap="round" stroke-linejoin="round"/>
<path d="M9.749 6.49898C11.1292 6.49898 12.248 5.38014 12.248 3.99998C12.248 2.61982 11.1292 1.50098 9.749 1.50098C8.36884 1.50098 7.25 2.61982 7.25 3.99998C7.25 5.38014 8.36884 6.49898 9.749 6.49898Z" stroke="white" stroke-width="1.5" stroke-linecap="round" stroke-linejoin="round"/>
<path d="M15.583 22.5H12.083C11.083 22.5 11.083 22 11.083 22" fill="white"/>
<path d="M15.583 22.5H12.083C11.083 22.5 11.083 22 11.083 22" stroke="white" stroke-width="1.5" stroke-linecap="round" stroke-linejoin="round"/>
<path d="M23.2504 18.5L21.6634 21.278C21.2094 22.072 20.7754 21.824 20.7754 21.824" fill="white"/>
<path d="M23.2504 18.5L21.6634 21.278C21.2094 22.072 20.7754 21.824 20.7754 21.824" stroke="white" stroke-width="1.5" stroke-linecap="round" stroke-linejoin="round"/>
<path d="M0.75 21.5H3.75" stroke="white" stroke-width="1.5" stroke-linecap="round" stroke-linejoin="round"/>
<path d="M20.5821 16.752L18.2501 15.2V12.752C18.2502 11.9041 17.9424 11.085 17.3841 10.447L15.3591 8.13396C15.0999 7.83756 14.7743 7.60658 14.4089 7.45985C14.0435 7.31311 13.6486 7.25477 13.2564 7.28957C12.8641 7.32436 12.4857 7.45132 12.1518 7.66009C11.8179 7.86887 11.5381 8.15355 11.3351 8.49096L10.4201 9.63696L8.4561 10.029C8.06597 10.1069 7.72279 10.3367 7.50206 10.6677C7.28132 10.9987 7.20112 11.4038 7.2791 11.794C7.35707 12.1841 7.58683 12.5273 7.91783 12.748C8.24884 12.9687 8.65396 13.0489 9.0441 12.971L11.5441 12.471C11.8907 12.4016 12.2016 12.2122 12.4221 11.936L13.5101 10.575L14.8491 12.106L11.4551 14.227C11.179 14.3995 10.9665 14.6573 10.8498 14.9613C10.7331 15.2652 10.7184 15.5989 10.8081 15.912L11.8081 19.412C11.8591 19.6048 11.948 19.7856 12.0697 19.9437C12.1914 20.1018 12.3434 20.234 12.5168 20.3326C12.6902 20.4312 12.8816 20.4942 13.0797 20.518C13.2777 20.5418 13.4786 20.5258 13.6704 20.471C13.8622 20.4162 14.0412 20.3236 14.1968 20.1988C14.3524 20.074 14.4816 19.9194 14.5767 19.744C14.6719 19.5687 14.7311 19.3761 14.7509 19.1776C14.7707 18.9791 14.7507 18.7786 14.6921 18.588L14.0001 16.174L15.2471 15.394V16C15.2471 16.2469 15.3081 16.49 15.4246 16.7077C15.5412 16.9254 15.7096 17.111 15.9151 17.248L18.9151 19.248C19.0793 19.3572 19.2633 19.4331 19.4568 19.4712C19.6503 19.5093 19.8493 19.509 20.0427 19.4702C20.236 19.4313 20.4198 19.3548 20.5836 19.245C20.7473 19.1351 20.8878 18.9941 20.9971 18.83C21.1064 18.6658 21.1822 18.4817 21.2203 18.2883C21.2585 18.0948 21.2581 17.8957 21.2193 17.7024C21.1805 17.5091 21.104 17.3253 20.9941 17.1615C20.8843 16.9977 20.7433 16.8572 20.5791 16.748L20.5821 16.752Z" stroke="white" stroke-width="1.5" stroke-linecap="round" stroke-linejoin="round"/>
</svg>
