<svg width="24" height="24" viewBox="0 0 24 24" fill="none" xmlns="http://www.w3.org/2000/svg">
<g clip-path="url(#clip0_3371_8191)">
<path d="M5.43213 20.689L3.31113 18.568C3.17186 18.4287 3.00651 18.3182 2.82453 18.2427C2.64254 18.1673 2.44748 18.1285 2.25048 18.1284C2.05348 18.1284 1.8584 18.1671 1.67638 18.2425C1.49436 18.3178 1.32896 18.4283 1.18963 18.5675C0.908232 18.8488 0.750094 19.2303 0.75 19.6282C0.749954 19.8252 0.78871 20.0203 0.864055 20.2023C0.939401 20.3843 1.04986 20.5497 1.18913 20.689L3.31113 22.811C3.59252 23.0923 3.97412 23.2503 4.37198 23.2502C4.76984 23.2501 5.15136 23.0919 5.43263 22.8105C5.71389 22.5292 5.87185 22.1476 5.87175 21.7497C5.87166 21.3518 5.71352 20.9703 5.43213 20.689V20.689Z" stroke="white" stroke-width="1.5" stroke-linecap="round" stroke-linejoin="round"/>
<path d="M3.31055 18.568C3.31055 18.568 15.3835 3.31301 16.8475 1.84801C17.5584 1.18561 18.4987 0.824996 19.4702 0.842137C20.4417 0.859278 21.3686 1.25284 22.0557 1.9399C22.7427 2.62697 23.1363 3.55389 23.1534 4.5254C23.1706 5.4969 22.8099 6.43714 22.1475 7.14801C20.6865 8.61601 5.43155 20.689 5.43155 20.689L3.31055 18.568Z" stroke="white" stroke-width="1.5" stroke-linecap="round" stroke-linejoin="round"/>
<path d="M10.9345 16.3139L7.68555 13.0649" stroke="white" stroke-width="1.5" stroke-linecap="round" stroke-linejoin="round"/>
<path d="M5.56152 15.731L8.26852 18.438" stroke="white" stroke-width="1.5" stroke-linecap="round" stroke-linejoin="round"/>
<path d="M17.25 20.25C17.25 21.0456 17.5661 21.8087 18.1287 22.3713C18.6913 22.9339 19.4544 23.25 20.25 23.25C21.0456 23.25 21.8087 22.9339 22.3713 22.3713C22.9339 21.8087 23.25 21.0456 23.25 20.25C23.25 19.4544 22.9339 18.6913 22.3713 18.1287C21.8087 17.5661 21.0456 17.25 20.25 17.25C19.4544 17.25 18.6913 17.5661 18.1287 18.1287C17.5661 18.6913 17.25 19.4544 17.25 20.25V20.25Z" stroke="white" stroke-width="1.5" stroke-linecap="round" stroke-linejoin="round"/>
</g>
<defs>
<clipPath id="clip0_3371_8191">
<rect width="24" height="24" fill="white"/>
</clipPath>
</defs>
</svg>
