<svg width="24" height="24" viewBox="0 0 24 24" fill="none" xmlns="http://www.w3.org/2000/svg">
<path d="M0.75 15.2871C0.75 16.2817 1.14509 17.2355 1.84835 17.9388C2.55161 18.642 3.50544 19.0371 4.5 19.0371C5.49456 19.0371 6.44839 18.642 7.15165 17.9388C7.85491 17.2355 8.25 16.2817 8.25 15.2871C8.25 14.2925 7.85491 13.3387 7.15165 12.6355C6.44839 11.9322 5.49456 11.5371 4.5 11.5371C3.50544 11.5371 2.55161 11.9322 1.84835 12.6355C1.14509 13.3387 0.75 14.2925 0.75 15.2871V15.2871Z" stroke="white" stroke-width="1.5" stroke-linecap="round" stroke-linejoin="round"/>
<path d="M15.75 15.2871C15.75 16.2817 16.1451 17.2355 16.8483 17.9388C17.5516 18.642 18.5054 19.0371 19.5 19.0371C20.4946 19.0371 21.4484 18.642 22.1517 17.9388C22.8549 17.2355 23.25 16.2817 23.25 15.2871C23.25 14.2925 22.8549 13.3387 22.1517 12.6355C21.4484 11.9322 20.4946 11.5371 19.5 11.5371C18.5054 11.5371 17.5516 11.9322 16.8483 12.6355C16.1451 13.3387 15.75 14.2925 15.75 15.2871V15.2871Z" stroke="white" stroke-width="1.5" stroke-linecap="round" stroke-linejoin="round"/>
<path d="M20.2502 8.53711C20.648 8.53711 21.0296 8.37907 21.3109 8.09777C21.5922 7.81646 21.7502 7.43493 21.7502 7.03711C21.7502 6.63928 21.5922 6.25775 21.3109 5.97645C21.0296 5.69514 20.648 5.53711 20.2502 5.53711H16.8422C16.7206 5.53736 16.6009 5.56714 16.4933 5.62388C16.3858 5.68063 16.2936 5.76264 16.2248 5.86288C16.1559 5.96311 16.1124 6.07857 16.098 6.19932C16.0837 6.32007 16.0988 6.44251 16.1422 6.55611L19.5002 15.2871" stroke="white" stroke-width="1.5" stroke-linecap="round" stroke-linejoin="round"/>
<path d="M10.4996 5.537L5.35059 4.25" stroke="white" stroke-width="1.5" stroke-linecap="round" stroke-linejoin="round"/>
<path d="M10.536 12.4341L7.5 4.78711" stroke="white" stroke-width="1.5" stroke-linecap="round" stroke-linejoin="round"/>
<path d="M4.5 15.2871L17.192 9.28711" stroke="white" stroke-width="1.5" stroke-linecap="round" stroke-linejoin="round"/>
</svg>
