<svg width="24" height="24" viewBox="0 0 24 24" fill="none" xmlns="http://www.w3.org/2000/svg">
<g clip-path="url(#clip0_3371_8195)">
<path d="M9.75 0.75C8.55653 0.75 7.41193 1.22411 6.56802 2.06802C5.72411 2.91193 5.25 4.05653 5.25 5.25V9C5.25 8.40326 5.01295 7.83097 4.59099 7.40901C4.16903 6.98705 3.59674 6.75 3 6.75C2.40326 6.75 1.83097 6.98705 1.40901 7.40901C0.987053 7.83097 0.75 8.40326 0.75 9V12.75C0.75 13.9435 1.22411 15.0881 2.06802 15.932C2.91193 16.7759 4.05653 17.25 5.25 17.25V21.75C5.25 22.1478 5.40804 22.5294 5.68934 22.8107C5.97064 23.092 6.35218 23.25 6.75 23.25H18.75C19.1478 23.25 19.5294 23.092 19.8107 22.8107C20.092 22.5294 20.25 22.1478 20.25 21.75V17.25C20.25 15 23.25 14.25 23.25 11.25V6.75C23.25 5.1587 22.6179 3.63258 21.4926 2.50736C20.3674 1.38214 18.8413 0.75 17.25 0.75H9.75Z" stroke="white" stroke-width="1.5" stroke-linecap="round" stroke-linejoin="round"/>
<path d="M17.25 9.75C17.25 10.5456 16.9339 11.3087 16.3713 11.8713C15.8087 12.4339 15.0456 12.75 14.25 12.75H7.5C6.90326 12.75 6.33097 12.5129 5.90901 12.091C5.48705 11.669 5.25 11.0967 5.25 10.5V9" stroke="white" stroke-width="1.5" stroke-linecap="round" stroke-linejoin="round"/>
<path d="M11.25 18.75C11.25 19.1478 11.092 19.5294 10.8107 19.8107C10.5294 20.092 10.1478 20.25 9.75 20.25H5.25V17.25H9.75C10.1478 17.25 10.5294 17.408 10.8107 17.6893C11.092 17.9706 11.25 18.3522 11.25 18.75Z" stroke="white" stroke-width="1.5" stroke-linecap="round" stroke-linejoin="round"/>
</g>
<defs>
<clipPath id="clip0_3371_8195">
<rect width="24" height="24" fill="white"/>
</clipPath>
</defs>
</svg>
