<svg width="24" height="24" viewBox="0 0 24 24" fill="none" xmlns="http://www.w3.org/2000/svg">
<path d="M15 16C15 16.5967 15.2371 17.169 15.659 17.591C16.081 18.0129 16.6533 18.25 17.25 18.25C17.8467 18.25 18.419 18.0129 18.841 17.591C19.2629 17.169 19.5 16.5967 19.5 16C19.5 15.4033 19.2629 14.831 18.841 14.409C18.419 13.9871 17.8467 13.75 17.25 13.75C16.6533 13.75 16.081 13.9871 15.659 14.409C15.2371 14.831 15 15.4033 15 16V16Z" stroke="white" stroke-width="1.5" stroke-linecap="round" stroke-linejoin="round"/>
<path d="M3 16C3 16.2955 3.0582 16.5881 3.17127 16.861C3.28434 17.134 3.45008 17.3821 3.65901 17.591C3.86794 17.7999 4.11598 17.9657 4.38896 18.0787C4.66194 18.1918 4.95453 18.25 5.25 18.25C5.54547 18.25 5.83806 18.1918 6.11104 18.0787C6.38402 17.9657 6.63206 17.7999 6.84099 17.591C7.04992 17.3821 7.21566 17.134 7.32873 16.861C7.4418 16.5881 7.5 16.2955 7.5 16C7.5 15.7045 7.4418 15.4119 7.32873 15.139C7.21566 14.866 7.04992 14.6179 6.84099 14.409C6.63206 14.2001 6.38402 14.0343 6.11104 13.9213C5.83806 13.8082 5.54547 13.75 5.25 13.75C4.95453 13.75 4.66194 13.8082 4.38896 13.9213C4.11598 14.0343 3.86794 14.2001 3.65901 14.409C3.45008 14.6179 3.28434 14.866 3.17127 15.139C3.0582 15.4119 3 15.7045 3 16V16Z" stroke="white" stroke-width="1.5" stroke-linecap="round" stroke-linejoin="round"/>
<path d="M15.1281 16.75H11.2501H7.37207" stroke="white" stroke-width="1.5" stroke-linecap="round" stroke-linejoin="round"/>
<path d="M3.128 16.75H0.75V10.75H5.25C6 8.5 8.351 7 11.25 7V12.25H20.25C21.0456 12.25 21.8087 12.5661 22.3713 13.1287C22.9339 13.6913 23.25 14.4544 23.25 15.25V16.75H19.372" stroke="white" stroke-width="1.5" stroke-linecap="round" stroke-linejoin="round"/>
<path d="M4.5 7L0.75 5.5" stroke="white" stroke-width="1.5" stroke-linecap="round" stroke-linejoin="round"/>
<path d="M2.25 10.7501V6.1001" stroke="white" stroke-width="1.5" stroke-linecap="round" stroke-linejoin="round"/>
<path d="M14.25 7C14.25 7.29547 14.3082 7.58806 14.4213 7.86104C14.5343 8.13402 14.7001 8.38206 14.909 8.59099C15.1179 8.79992 15.366 8.96566 15.639 9.07873C15.9119 9.1918 16.2045 9.25 16.5 9.25C16.7955 9.25 17.0881 9.1918 17.361 9.07873C17.634 8.96566 17.8821 8.79992 18.091 8.59099C18.2999 8.38206 18.4657 8.13402 18.5787 7.86104C18.6918 7.58806 18.75 7.29547 18.75 7C18.75 6.70453 18.6918 6.41194 18.5787 6.13896C18.4657 5.86598 18.2999 5.61794 18.091 5.40901C17.8821 5.20008 17.634 5.03434 17.361 4.92127C17.0881 4.8082 16.7955 4.75 16.5 4.75C16.2045 4.75 15.9119 4.8082 15.639 4.92127C15.366 5.03434 15.1179 5.20008 14.909 5.40901C14.7001 5.61794 14.5343 5.86598 14.4213 6.13896C14.3082 6.41194 14.25 6.70453 14.25 7V7Z" stroke="white" stroke-width="1.5" stroke-linecap="round" stroke-linejoin="round"/>
</svg>
