<svg width="24" height="24" viewBox="0 0 24 24" fill="none" xmlns="http://www.w3.org/2000/svg">
<g clip-path="url(#clip0_3376_7809)">
<path d="M5.25 11.019V0.75L9.466 2.858C9.55125 2.90074 9.62294 2.96635 9.67303 3.0475C9.72313 3.12865 9.74966 3.22213 9.74966 3.3175C9.74966 3.41287 9.72313 3.50635 9.67303 3.5875C9.62294 3.66865 9.55125 3.73426 9.466 3.777L7.5 4.76" stroke="white" stroke-width="1.5" stroke-linecap="round" stroke-linejoin="round"/>
<path d="M23.25 6L21.085 22.6C21.0615 22.7805 20.9731 22.9462 20.8364 23.0664C20.6997 23.1865 20.524 23.2528 20.342 23.253H17.625C17.1277 23.253 16.6508 23.0555 16.2992 22.7038C15.9475 22.3522 15.75 21.8753 15.75 21.378C15.75 20.8807 15.9475 20.4038 16.2992 20.0522C16.6508 19.7005 17.1277 19.503 17.625 19.503C18.3485 19.503 19.0456 19.775 19.578 20.265L21.2 21.751" stroke="white" stroke-width="1.5" stroke-linecap="round" stroke-linejoin="round"/>
<path d="M9.75 21C9.75 21.3978 9.90804 21.7794 10.1893 22.0607C10.4706 22.342 10.8522 22.5 11.25 22.5C11.6478 22.5 12.0294 22.342 12.3107 22.0607C12.592 21.7794 12.75 21.3978 12.75 21C12.75 20.6022 12.592 20.2206 12.3107 19.9393C12.0294 19.658 11.6478 19.5 11.25 19.5C10.8522 19.5 10.4706 19.658 10.1893 19.9393C9.90804 20.2206 9.75 20.6022 9.75 21V21Z" stroke="white" stroke-width="1.5" stroke-linecap="round" stroke-linejoin="round"/>
<path d="M8.25 8.27295C11.625 8.47995 14.25 10.0729 14.25 11.9999C14.25 14.0709 11.228 15.7499 7.5 15.7499C3.772 15.7499 0.75 14.0709 0.75 11.9999C0.787603 11.5142 0.944086 11.0452 1.20566 10.6341C1.46724 10.2231 1.82588 9.88272 2.25 9.64295" stroke="white" stroke-width="1.5" stroke-linecap="round" stroke-linejoin="round"/>
</g>
<defs>
<clipPath id="clip0_3376_7809">
<rect width="24" height="24" fill="white"/>
</clipPath>
</defs>
</svg>
