<svg width="24" height="24" viewBox="0 0 24 24" fill="none" xmlns="http://www.w3.org/2000/svg">
<path d="M23.2481 3.85206C23.2633 3.44086 23.1936 3.03093 23.0432 2.6479C22.8928 2.26488 22.6651 1.91701 22.3741 1.62604C22.0831 1.33508 21.7352 1.10728 21.3522 0.956898C20.9692 0.806516 20.5593 0.736783 20.1481 0.752063C16.4781 0.892063 10.2591 1.80206 6.03106 6.03306C1.80306 10.2641 0.891063 16.4761 0.752063 20.1521C0.736783 20.5633 0.806516 20.9732 0.956898 21.3562C1.10728 21.7392 1.33508 22.0871 1.62604 22.3781C1.91701 22.669 2.26488 22.8968 2.6479 23.0472C3.03093 23.1976 3.44086 23.2673 3.85206 23.2521C7.52706 23.1141 13.7461 22.2021 17.9741 17.9731C22.2021 13.7441 23.1091 7.52806 23.2481 3.85206Z" stroke="white" stroke-width="1.5" stroke-linecap="round" stroke-linejoin="round"/>
<path d="M15.75 8.25208L8.25 15.7521" stroke="white" stroke-width="1.5" stroke-linecap="round" stroke-linejoin="round"/>
<path d="M10.875 10.8771L13.125 13.1271" stroke="white" stroke-width="1.5" stroke-linecap="round" stroke-linejoin="round"/>
<path d="M8.25 13.5021L10.5 15.7521" stroke="white" stroke-width="1.5" stroke-linecap="round" stroke-linejoin="round"/>
<path d="M13.5 8.25208L15.75 10.5021" stroke="white" stroke-width="1.5" stroke-linecap="round" stroke-linejoin="round"/>
<path d="M1.42578 14.9281L9.07378 22.5761" stroke="white" stroke-width="1.5" stroke-linecap="round" stroke-linejoin="round"/>
<path d="M22.5738 9.0761L14.9258 1.4281" stroke="white" stroke-width="1.5" stroke-linecap="round" stroke-linejoin="round"/>
</svg>
