<svg width="24" height="24" viewBox="0 0 24 24" fill="none" xmlns="http://www.w3.org/2000/svg">
<path d="M11.0156 11.8589L15.1826 7.69189" stroke="white" stroke-width="1.5" stroke-linecap="round" stroke-linejoin="round"/>
<path d="M15.1826 7.692L15.7506 3.942L18.9986 0.75L19.5006 3.374L22.1246 3.876L18.9326 7.124L15.1826 7.692Z" stroke="white" stroke-width="1.5" stroke-linecap="round" stroke-linejoin="round"/>
<path d="M21.0554 9.51304C21.5854 11.5221 21.4597 13.6479 20.6967 15.5805C19.9336 17.5132 18.5732 19.1515 16.8136 20.2566C15.0541 21.3617 12.9876 21.8758 10.9153 21.7239C8.84309 21.5721 6.87356 20.7622 5.29394 19.4124C3.71431 18.0625 2.60721 16.2434 2.13408 14.2202C1.66094 12.197 1.84652 10.0755 2.66374 8.16521C3.48096 6.25488 4.88709 4.65558 6.67707 3.60052C8.46706 2.54546 10.5473 2.08982 12.6144 2.30004" stroke="white" stroke-width="1.5" stroke-linecap="round" stroke-linejoin="round"/>
<path d="M16.7216 10.737C16.9847 11.7977 16.9103 12.914 16.5087 13.9304C16.1072 14.9468 15.3985 15.8126 14.4815 16.4071C13.5646 17.0015 12.4849 17.2951 11.3932 17.2469C10.3014 17.1986 9.25191 16.8109 8.39095 16.1379C7.53 15.4648 6.90049 14.5399 6.59017 13.4921C6.27985 12.4442 6.3042 11.3257 6.65981 10.2923C7.01541 9.25896 7.68457 8.36231 8.57399 7.72733C9.46342 7.09236 10.5288 6.75071 11.6216 6.75" stroke="white" stroke-width="1.5" stroke-linecap="round" stroke-linejoin="round"/>
<path d="M6.51562 20.25L5.76562 23.25" stroke="white" stroke-width="1.5" stroke-linecap="round" stroke-linejoin="round"/>
<path d="M17.0156 20.25L17.7656 23.25" stroke="white" stroke-width="1.5" stroke-linecap="round" stroke-linejoin="round"/>
</svg>
