<svg width="24" height="24" viewBox="0 0 24 24" fill="none" xmlns="http://www.w3.org/2000/svg">
<path d="M0.75 12C0.75 14.9837 1.93526 17.8452 4.04505 19.955C6.15483 22.0647 9.01631 23.25 12 23.25C14.9837 23.25 17.8452 22.0647 19.955 19.955C22.0647 17.8452 23.25 14.9837 23.25 12C23.25 9.01631 22.0647 6.15483 19.955 4.04505C17.8452 1.93526 14.9837 0.75 12 0.75C9.01631 0.75 6.15483 1.93526 4.04505 4.04505C1.93526 6.15483 0.75 9.01631 0.75 12V12Z" stroke="white" stroke-width="1.5" stroke-linecap="round" stroke-linejoin="round"/>
<path d="M20.611 19.24C19.9302 17.388 18.7777 15.7458 17.2674 14.4759C15.7571 13.2061 13.9414 12.3526 12 12" stroke="white" stroke-width="1.5" stroke-linecap="round" stroke-linejoin="round"/>
<path d="M1.36523 15.679C3.30491 16.063 5.31178 15.9247 7.18045 15.2783C9.04912 14.6318 10.7125 13.5005 12.0002 12" stroke="white" stroke-width="1.5" stroke-linecap="round" stroke-linejoin="round"/>
<path d="M13.8893 0.907959C12.6208 2.4241 11.7775 4.24985 11.4456 6.19863C11.1137 8.14742 11.3051 10.1494 12.0003 12" stroke="white" stroke-width="1.5" stroke-linecap="round" stroke-linejoin="round"/>
<path d="M4.94158 15.8C3.73163 14.1801 2.98044 12.2641 2.76699 10.2535C2.55354 8.24287 2.88571 6.21188 3.72858 4.37402" stroke="white" stroke-width="1.5" stroke-linecap="round" stroke-linejoin="round"/>
<path d="M8.70745 14.6169C7.29817 12.6403 6.56591 10.261 6.61998 7.83403C6.67405 5.4071 7.51154 3.06273 9.00745 1.15088" stroke="white" stroke-width="1.5" stroke-linecap="round" stroke-linejoin="round"/>
<path d="M12.0752 3.95502C14.0409 3.66724 16.0479 3.90487 17.892 4.64378C19.7362 5.38268 21.352 6.59653 22.5752 8.16202" stroke="white" stroke-width="1.5" stroke-linecap="round" stroke-linejoin="round"/>
<path d="M11.2998 7.86097C13.679 7.54258 16.0977 7.98912 18.2064 9.13602C20.315 10.2829 22.0042 12.0707 23.0298 14.241" stroke="white" stroke-width="1.5" stroke-linecap="round" stroke-linejoin="round"/>
<path d="M18.8312 16.075C18.0709 17.9442 16.8223 19.5748 15.216 20.7962C13.6097 22.0176 11.7046 22.785 9.7002 23.018" stroke="white" stroke-width="1.5" stroke-linecap="round" stroke-linejoin="round"/>
<path d="M15.8506 13.4609C14.8935 15.673 13.2515 17.5192 11.1662 18.7277C9.08092 19.9363 6.66266 20.4432 4.26758 20.1739" stroke="white" stroke-width="1.5" stroke-linecap="round" stroke-linejoin="round"/>
</svg>
