<svg width="24" height="24" viewBox="0 0 24 24" fill="none" xmlns="http://www.w3.org/2000/svg">
<g clip-path="url(#clip0_3371_8200)">
<path d="M9.25012 11.26C10.7026 11.26 11.8801 10.0825 11.8801 8.63C11.8801 7.17749 10.7026 6 9.25012 6C7.79761 6 6.62012 7.17749 6.62012 8.63C6.62012 10.0825 7.79761 11.26 9.25012 11.26Z" stroke="white" stroke-width="1.5" stroke-linecap="round" stroke-linejoin="round"/>
<path d="M20.5 6.75C22.1569 6.75 23.5 5.40685 23.5 3.75C23.5 2.09315 22.1569 0.75 20.5 0.75C18.8431 0.75 17.5 2.09315 17.5 3.75C17.5 5.40685 18.8431 6.75 20.5 6.75Z" stroke="white" stroke-width="1.5" stroke-linecap="round" stroke-linejoin="round"/>
<path d="M6.03042 17.3799L6.25042 16.4999H5.85042C5.57204 16.5003 5.29926 16.5781 5.06261 16.7247C4.82595 16.8713 4.63476 17.0808 4.51042 17.3299L3.84042 18.6699C3.717 18.9197 3.52602 19.1299 3.28916 19.2766C3.05229 19.4233 2.77904 19.5007 2.50042 19.4999C2.26743 19.5015 2.03752 19.4466 1.83042 19.3399C1.47797 19.1618 1.20996 18.852 1.08452 18.4775C0.959093 18.1031 0.986363 17.6943 1.16042 17.3399L1.83042 15.9999C2.19916 15.2535 2.76899 14.625 3.47571 14.1851C4.18243 13.7451 4.99795 13.5113 5.83042 13.5099H10.0304L10.8504 12.5099L13.0304 9.77989L15.5804 6.58989C15.8297 6.27959 16.1921 6.08103 16.5878 6.0379C16.9835 5.99476 17.3801 6.11059 17.6904 6.35989C18.0007 6.60919 18.1993 6.97155 18.2424 7.36726C18.2855 7.76296 18.1697 8.15959 17.9204 8.46989L12.6004 15.1099L12.0304 17.4099" stroke="white" stroke-width="1.5" stroke-linecap="round" stroke-linejoin="round"/>
<path d="M1 23.2501C1.73036 23.2501 2.45046 23.0782 3.10197 22.7481C3.75348 22.418 4.31807 21.939 4.75 21.3501C5.18188 21.9391 5.74645 22.4181 6.39796 22.7483C7.04947 23.0785 7.7696 23.2506 8.5 23.2506C9.2304 23.2506 9.95053 23.0785 10.602 22.7483C11.2535 22.4181 11.8181 21.9391 12.25 21.3501C12.6819 21.9391 13.2465 22.4181 13.898 22.7483C14.5495 23.0785 15.2696 23.2506 16 23.2506C16.7304 23.2506 17.4505 23.0785 18.102 22.7483C18.7535 22.4181 19.3181 21.9391 19.75 21.3501C20.1819 21.939 20.7465 22.418 21.398 22.7481C22.0495 23.0782 22.7696 23.2501 23.5 23.2501" stroke="white" stroke-width="1.5" stroke-linecap="round" stroke-linejoin="round"/>
</g>
<defs>
<clipPath id="clip0_3371_8200">
<rect width="24" height="24" fill="white"/>
</clipPath>
</defs>
</svg>
